<?xml version="1.0" encoding="UTF-8" standalone="no"?>
<!DOCTYPE svg PUBLIC "-//W3C//DTD SVG 1.1//EN" "http://www.w3.org/Graphics/SVG/1.1/DTD/svg11.dtd">
<svg width="100%" height="100%" viewBox="0 0 1254 790" version="1.1" xmlns="http://www.w3.org/2000/svg" xmlns:xlink="http://www.w3.org/1999/xlink" xml:space="preserve" xmlns:serif="http://www.serif.com/" style="fill-rule:evenodd;clip-rule:evenodd;stroke-linecap:round;stroke-linejoin:round;stroke-miterlimit:20;">
<g transform="matrix(1,0,0,1,-590.199,-818.098)">
<g transform="matrix(1.11976,0,0,0.413793,-219.586,843.617)">
<path d="M1833.55,1821.52L732.48,1821.52L873.793,1439.11L1692.23,1439.11L1833.55,1821.52Z" style="fill:rgb(128,128,128);stroke:rgb(35,31,32);stroke-width:24.68px;"/>
</g>
<g transform="matrix(1,0,0,1,4.94483,25.6483)">
<rect x="758.853" y="802.866" width="906.567" height="573.609" style="fill:none;stroke:rgb(35,31,32);stroke-width:20.83px;"/>
</g>
<g transform="matrix(1,0,0,1,4.94483,25.6483)">
<text x="805.006px" y="893.444px" style="font-family:'ArialNarrow', 'Arial', sans-serif;font-stretch:condensed;font-size:66.667px;fill:rgb(35,31,32);">
@ Edeka</text>
<text x="805.006px" y="960.11px" style="font-family:'ArialNarrow', 'Arial', sans-serif;font-stretch:condensed;font-size:66.667px;fill:rgb(35,31,32);">
T<tspan x="832.349px 862.753px " y="960.11px 960.11px ">
ee</tspan>
</text>
<text x="805.006px" y="1026.78px" style="font-family:'ArialNarrow', 'Arial', sans-serif;font-stretch:condensed;font-size:66.667px;fill:rgb(35,31,32);">
Mehl</text>
<text x="805.006px" y="1143.44px" style="font-family:'ArialNarrow', 'Arial', sans-serif;font-stretch:condensed;font-size:66.667px;fill:rgb(35,31,32);">
@ REWE</text>
<text x="805.006px" y="1210.11px" style="font-family:'ArialNarrow', 'Arial', sans-serif;font-stretch:condensed;font-size:66.667px;fill:rgb(35,31,32);">
Möhren</text>
</g>
<g transform="matrix(0.800001,0,0,1.25,373.632,-1124.08)">
<rect x="656.658" y="1902.28" width="214.279" height="118.678" style="fill:none;"/>
<g id="back.svg" transform="matrix(0.281379,0,0,0.147309,759.647,1962.04)">
<g transform="matrix(1,0,0,1,-400,-400)">
<g transform="matrix(1,0,0,1,82.1905,150.476)">
<g id="back">
<g>
<g transform="matrix(1,0,0,1,-76.1905,-190.476)">
<path d="M212,440L576,440" style="fill:none;stroke:black;stroke-width:50px;stroke-miterlimit:1.5;"/>
</g>
<g transform="matrix(1,0,0,1,-76.1905,-117.476)">
<path d="M212,367L359.872,219.128" style="fill:none;stroke:black;stroke-width:50px;stroke-miterlimit:1.5;"/>
</g>
<g transform="matrix(2.83277e-16,1,-1,2.83277e-16,502.81,37.5238)">
<path d="M212,367L359.872,219.128" style="fill:none;stroke:black;stroke-width:50px;stroke-miterlimit:1.5;"/>
</g>
</g>
</g>
</g>
</g>
</g>
</g>
<g transform="matrix(0.800001,0,0,1.25,805.487,-1124.08)">
<rect x="656.658" y="1902.28" width="214.279" height="118.678" style="fill:none;"/>
<g id="save.svg" transform="matrix(0.281379,0,0,0.147309,759.647,1962.04)">
<g transform="matrix(1,0,0,1,-400,-400)">
<g id="save" transform="matrix(0.820314,0,0,0.820314,159.197,172.844)">
<g>
<path d="M266.667,57.143L95.238,57.143C53.159,57.143 19.048,91.254 19.048,133.333L19.048,476.205C19.048,518.283 53.159,552.395 95.238,552.395L476.19,552.395C518.269,552.395 552.381,518.283 552.381,476.205L552.381,304.762" style="fill:none;stroke:black;stroke-width:48.76px;stroke-miterlimit:4;"/>
<path d="M552.381,17.778C573.521,39.622 573.236,74.383 551.741,95.878L285.714,361.905L171.429,400L209.524,285.714L475.712,17.309C495.278,-2.42 526.366,-3.777 547.515,13.327L552.381,17.778Z" style="fill:none;stroke:black;stroke-width:48.76px;stroke-miterlimit:4;"/>
<path d="M476.19,95.238L512.495,133.333" style="fill:none;stroke:black;stroke-width:48.76px;stroke-miterlimit:4;"/>
</g>
</g>
</g>
</g>
</g>
</g>
</svg>
